<svg xmlns="http://www.w3.org/2000/svg" width="508" height="502" fill="none" viewBox="0 0 508 502">
  <rect width="300" height="360" x=".214" y="193.139" fill="url(#paint0_linear_129_9)" rx="50" transform="rotate(-31 .214 193.139)"/>
  <rect width="293" height="353" x="69.305" y="155.709" fill="url(#paint1_linear_129_9)" rx="46.5" transform="rotate(-31 69.305 155.709)"/>
  <rect width="293" height="353" x="69.305" y="155.709" stroke="url(#paint2_linear_129_9)" stroke-width="7" rx="46.5" transform="rotate(-31 69.305 155.709)"/>
  <rect width="293" height="353" x="69.305" y="155.709" stroke="url(#paint3_linear_129_9)" stroke-width="7" rx="46.5" transform="rotate(-31 69.305 155.709)"/>
  <g>
    <path fill="url(#paint4_linear_129_9)" d="M335.064 317.184c21.412-13.074 36.467-33.552 42.348-57.876 5.882-24.325 1.846-49.419-11.228-70.831-13.074-21.412-33.551-36.467-57.876-42.348-24.325-5.882-49.419-1.846-70.831 11.228-21.412 13.074-36.467 33.551-42.348 57.876-5.882 24.325-1.846 49.419 11.228 70.831 13.074 21.412 33.551 36.467 57.876 42.348 24.325 5.882 49.419 1.846 70.831-11.228zm-3.7-16.376c-1.412 1.126-2.942 2.059-4.471 2.993-2.103 1.284-4.323 2.377-6.543 3.47-13.419-6.504-25.585-14.823-35.998-25l33.839-20.661c2.898 2.167 6.635 3.56 10.171 3.763 2.587 11.543 3.485 23.33 3.002 35.435zm15.828-14.913c-.453-8.909-1.671-17.351-3.696-25.825 4.844-4.533 6.906-11.041 5.858-17.487l14.721-8.988c.874 18.625-5.282 37.343-16.883 52.3zm5.418-89.13c3.852 6.309 6.632 13.01 8.721 19.871l-20.648 12.607c-2.664-1.785-5.977-2.912-9.322-3.232a163.08 163.08 0 00-7.13-12.968c-3.619-5.927-7.62-11.62-11.887-16.888l26.383-16.109c5.414 4.568 10.031 10.41 13.883 16.719zm-27.524-27.025l-23.324 14.242c-8.905-8.998-18.608-16.721-29.415-23.245 17.915-3.328 36.804.099 52.739 9.003zm-14.238 51.474c1.985 3.25 3.778 6.617 5.571 9.984-4.653 4.415-6.949 10.541-6.133 16.605l-36.898 22.529c-4.267-5.269-8.459-10.845-11.961-16.58a122.038 122.038 0 01-6.08-11.248c4.387-3.991 6.417-9.692 6.335-15.416l37.28-22.762a156.522 156.522 0 0111.886 16.888zm-69.937-47.057c1.604-1.242 3.324-2.292 4.854-3.226 1.912-1.167 3.824-2.335 5.852-3.311 13.419 6.504 25.585 14.823 35.998 25l-33.265 20.311c-3.132-2.55-6.986-4.134-10.946-4.602-2.162-11.278-3.018-22.566-2.493-34.172zm-15.828 14.913a165.87 165.87 0 003.262 24.254c-5.227 4.766-7.321 12.081-5.848 18.793l-13.956 8.521c-.832-18.126 4.941-36.611 16.542-51.568zm-5.152 88.706c-3.852-6.309-6.748-13.202-8.53-19.988l20.839-12.723c2.431 1.402 5.319 2.264 8.165 2.626 2.419 4.822 4.838 9.643 7.639 14.232a153.338 153.338 0 0011.77 16.697l-26 15.875c-5.531-4.759-10.031-10.41-13.883-16.719zm50.348 12.826c8.789 8.806 18.608 16.72 29.416 23.244-18.032 3.137-36.613-.215-52.357-9.237l22.941-14.007z"/>
  </g>
  <defs>
    <linearGradient id="paint0_linear_129_9" x1="61.177" x2="57.904" y1="192.279" y2="553.826" gradientUnits="userSpaceOnUse">
      <stop stop-color="#182A45"/>
      <stop offset=".156" stop-color="#05152F"/>
      <stop offset=".759" stop-color="#07122D"/>
      <stop offset=".834" stop-color="#031E4E"/>
      <stop offset=".917" stop-color="#040918"/>
      <stop offset="1" stop-color="#040918"/>
    </linearGradient>
    <linearGradient id="paint1_linear_129_9" x1="214.502" x2="214.502" y1="154.511" y2="514.511" gradientUnits="userSpaceOnUse">
      <stop stop-color="#13213B"/>
      <stop offset=".832" stop-color="#15304C"/>
      <stop offset="1" stop-color="#0B3761"/>
    </linearGradient>
    <linearGradient id="paint2_linear_129_9" x1="338.844" x2="91.896" y1="165.882" y2="504.459" gradientUnits="userSpaceOnUse">
      <stop offset=".745" stop-color="#152E4A"/>
      <stop offset=".926" stop-color="#143776"/>
      <stop offset="1" stop-color="#15253C"/>
    </linearGradient>
    <linearGradient id="paint3_linear_129_9" x1="98.678" x2="213.742" y1="97.093" y2="262.839" gradientUnits="userSpaceOnUse">
      <stop stop-color="#fff" stop-opacity=".4"/>
      <stop offset="1" stop-color="#fff" stop-opacity="0"/>
    </linearGradient>
    <linearGradient id="paint4_linear_129_9" x1="210.635" x2="420.792" y1="226.523" y2="491.296" gradientUnits="userSpaceOnUse">
      <stop stop-color="#569AE9"/>
      <stop offset="1" stop-color="#569AE9" stop-opacity="0"/>
    </linearGradient>
  </defs>
</svg>
